<?xml version="1.0" encoding="UTF-8"?>
<svg id="Camada_1" data-name="Camada 1" xmlns="http://www.w3.org/2000/svg" xmlns:xlink="http://www.w3.org/1999/xlink" viewBox="0 0 1024 1024">
  <defs>
    <style>
      .cls-1 {
        fill: url(#Gradiente_sem_nome_146-2);
      }

      .cls-2 {
        fill: url(#Gradiente_sem_nome_146-4);
      }

      .cls-3 {
        fill: url(#Gradiente_sem_nome_57);
      }

      .cls-4 {
        fill: url(#Gradiente_sem_nome_11);
      }

      .cls-5 {
        fill: #a8a8a8;
      }

      .cls-6 {
        fill: url(#Gradiente_sem_nome_11-2);
      }

      .cls-7 {
        fill: url(#Gradiente_sem_nome_146-3);
      }

      .cls-8 {
        fill: #4487bf;
      }

      .cls-9 {
        fill: url(#Gradiente_sem_nome_146);
      }
    </style>
    <linearGradient id="Gradiente_sem_nome_57" data-name="Gradiente sem nome 57" x1="838.07" y1="501.55" x2="716.89" y2="592.64" gradientUnits="userSpaceOnUse">
      <stop offset="0" stop-color="#c6d75d"/>
      <stop offset=".05" stop-color="#bfd45b"/>
      <stop offset=".25" stop-color="#a7c954"/>
      <stop offset=".47" stop-color="#96c14f"/>
      <stop offset=".71" stop-color="#8cbd4c"/>
      <stop offset="1" stop-color="#89bc4c"/>
    </linearGradient>
    <linearGradient id="Gradiente_sem_nome_146" data-name="Gradiente sem nome 146" x1="203.04" y1="462.75" x2="300.55" y2="462.75" gradientUnits="userSpaceOnUse">
      <stop offset="0" stop-color="#56c2c1"/>
      <stop offset="1" stop-color="#4487bf"/>
    </linearGradient>
    <linearGradient id="Gradiente_sem_nome_146-2" data-name="Gradiente sem nome 146" x1="215.75" y1="606.41" x2="340.84" y2="481.32" xlink:href="#Gradiente_sem_nome_146"/>
    <linearGradient id="Gradiente_sem_nome_146-3" data-name="Gradiente sem nome 146" x1="107.55" y1="532.06" x2="275.3" y2="364.31" xlink:href="#Gradiente_sem_nome_146"/>
    <linearGradient id="Gradiente_sem_nome_11" data-name="Gradiente sem nome 11" x1="423.91" y1="414.7" x2="345.92" y2="473.32" gradientUnits="userSpaceOnUse">
      <stop offset="0" stop-color="#c6d75d"/>
      <stop offset="1" stop-color="#89bc4c"/>
    </linearGradient>
    <linearGradient id="Gradiente_sem_nome_146-4" data-name="Gradiente sem nome 146" x1="302.86" y1="666.31" x2="454.06" y2="515.11" xlink:href="#Gradiente_sem_nome_146"/>
    <linearGradient id="Gradiente_sem_nome_11-2" data-name="Gradiente sem nome 11" x1="234.14" y1="560.85" x2="141.98" y2="630.11" xlink:href="#Gradiente_sem_nome_11"/>
  </defs>
  <g>
    <path class="cls-3" d="M772.6,535.98c1.71,2.08,2.56,4.34,3.43,6.89-2.66,2.96-6.05,4.92-10.16,6.21-22.21,6.94-50.55,2.04-56.41-23.52-2.61-11.38-2.49-23.22,1.21-34.39,8.5-25.65,41.51-31.16,62.54-18.5-.97,3.89-3.15,6.86-5.41,10.26-5.16-3.78-11.08-6.93-18.01-7.03-9.14-.13-16.65,4.86-20.26,13.32-4.97,11.62-5.13,25.03-.74,36.89,3.77,10.18,12.77,16.44,24.01,15.91,7.55-.36,13.51-3.17,19.81-6.04ZM829.86,549.54c-4.79-.04-9.57-.08-14.36-.12-.65-1.95-1.31-3.89-1.96-5.84-7.66,8.2-20.2,10.96-29.45,3.99-5.78-4.35-6.89-12.12-5.12-19.52,1.34-5.63,7.09-11.06,13.88-13.02,6.62-1.91,13.07-1.6,20.04-1.57.98-3.51.03-7-1.92-9.82-4.97-7.16-19.52-2.8-25.8,1.69-1.16-2.9-2.31-5.8-3.47-8.7,9.84-5.21,20.52-7.41,31.5-5.4,8.52,1.56,14.5,8.41,15.12,17.17.98,13.95-.97,27.17,1.55,41.14ZM813.7,521.69c-6.58-1.52-16.72-.3-18.83,6.48-1.19,3.82-1.15,8.09,1.62,10.79,2.72,2.64,6.45,2.68,9.97,1.63,7.99-2.37,7.4-11.67,7.24-18.91ZM862.5,491.97c-3.72,2.19-6.09,6.21-8.86,9.53-.71-2.93-.92-6.11-1.63-9.04l-13.02-.16.34,57.43c5.18-.06,10.36-.13,15.54-.19l.28-35.67c.03-4.09,2.7-8.42,6.38-9.8,3.82-1.43,7.27.44,11.09,1.79,1.87-4.25,3.74-8.5,5.61-12.76-4.97-2.87-10.81-4.02-15.72-1.12ZM894.19,523.19c-.53,5.02,1.06,10.7,4.74,14.65,6.71,7.18,19.9,4.58,28.42.49l3.71,7.22c-11.38,6.56-25.6,8.24-37.72,3.09-18.26-7.76-20.65-36.09-7.88-49.39,6.11-6.36,14.47-8.96,23.55-8.55,11.53.51,20.93,7.92,22.47,19.58.55,4.2.49,8.4.26,12.86l-37.56.04ZM917.08,515.07c.56-8.04-2.19-15.15-8.98-16.27-4.1-.68-8.08.51-10.67,4.13-2.56,3.58-3.97,7.75-3.56,12.44l23.2-.3Z"/>
    <path class="cls-8" d="M546.54,466.13c.01.07.02.14.04.21v9.48l-34.56.04v25.98l26.49.27v9.77l-26.49.23v30.23l34.56.22v9.39l-50.19-.18.05-85.54,50.11-.08ZM604.28,494.62h-10.03l-14.56,37.6-15.47-37.6h-16.74s-.05,0-.08,0l16.9,41.28,6.35,16.04h12.58c6.61-19.92,15.7-36.93,21.92-57.14-.29-.07-.58-.13-.87-.18ZM657.36,510.55c.55,4.2.49,8.4.26,12.86l-37.55.04c-.53,5.02,1.06,10.7,4.74,14.65,6.71,7.18,19.9,4.58,28.42.49l3.71,7.22c-11.38,6.56-25.6,8.24-37.72,3.09-18.26-7.76-20.65-36.09-7.88-49.39,6.11-6.36,14.47-8.96,23.55-8.55,11.53.51,20.93,7.92,22.47,19.58ZM633.97,499.05c-4.1-.68-8.08.51-10.67,4.13-2.56,3.58-3.97,7.75-3.56,12.44l23.2-.3c.56-8.04-2.19-15.15-8.98-16.27ZM689,494.18c-3.72,2.19-6.09,6.21-8.86,9.53-.71-2.93-.92-6.11-1.63-9.04l-13.02-.16.34,57.43c5.18-.06,10.36-.13,15.54-.19l.28-35.67c.03-4.09,2.7-8.42,6.38-9.8,3.82-1.43,7.27.44,11.09,1.79,1.87-4.25,3.74-8.5,5.61-12.76-4.97-2.87-10.81-4.02-15.72-1.12Z"/>
  </g>
  <g>
    <path class="cls-5" d="M509.08,593.9c-1.17.57-2.41,1.13-3.71,1.13-4.32,0-6.29-3.44-6.29-6.63s1.97-6.63,6.29-6.63c1.43,0,2.78.65,3.67,1.14l.37.2.37-2.71-.17-.1c-1.07-.64-2.74-1.05-4.25-1.05-6.18,0-8.99,4.71-8.99,9.09s3.09,9.09,8.99,9.09c1.47,0,2.94-.37,4.24-1.07l.18-.1-.35-2.55-.36.18Z"/>
    <polygon class="cls-5" points="517.69 579.63 515.19 579.63 515.19 597.08 525.6 597.08 525.6 594.57 517.69 594.57 517.69 579.63"/>
    <polygon class="cls-5" points="531.02 597.08 541.92 597.08 541.92 594.57 533.53 594.57 533.53 588.88 538.91 588.88 538.91 586.38 533.53 586.38 533.53 582.13 541.92 582.13 541.92 579.63 531.02 579.63 531.02 597.08"/>
    <path class="cls-5" d="M553.63,579.63l-7.28,17.45h2.85l1.83-4.39h7.25l1.62,4.39h2.84l-6.48-17.45h-2.61ZM557.34,590.18h-5.27l2.8-6.68,2.47,6.68Z"/>
    <polygon class="cls-5" points="577.81 592.29 569.64 579.76 569.55 579.63 567.18 579.63 567.18 597.08 569.69 597.08 569.69 584.41 577.86 596.95 577.94 597.08 580.32 597.08 580.32 579.63 577.81 579.63 577.81 592.29"/>
    <polygon class="cls-5" points="605.74 586.38 597.62 586.38 597.62 579.63 595.11 579.63 595.11 597.08 597.62 597.08 597.62 588.88 605.74 588.88 605.74 597.08 608.25 597.08 608.25 579.63 605.74 579.63 605.74 586.38"/>
    <path class="cls-5" d="M622.06,579.26c-6.01,0-8.75,4.71-8.75,9.09s2.74,9.09,8.75,9.09,8.73-4.71,8.73-9.09-2.73-9.09-8.73-9.09ZM628.19,588.35c0,3.17-1.92,6.58-6.12,6.58s-6.15-3.41-6.15-6.58,1.92-6.58,6.15-6.58,6.12,3.41,6.12,6.58Z"/>
    <polygon class="cls-5" points="644.52 593.52 638.28 579.63 635.87 579.63 635.87 597.08 638.38 597.08 638.38 585.99 643.3 597.08 645.86 597.08 650.12 586.37 650.12 597.08 652.63 597.08 652.63 579.63 650.22 579.63 644.52 593.52"/>
    <polygon class="cls-5" points="658.05 597.08 668.95 597.08 668.95 594.57 660.56 594.57 660.56 588.88 665.93 588.88 665.93 586.38 660.56 586.38 660.56 582.13 668.95 582.13 668.95 579.63 658.05 579.63 658.05 597.08"/>
    <path class="cls-5" d="M680.77,587.51c-2.26-.68-4.21-1.27-4.21-3.66,0-1.37,1.32-2.41,3.06-2.41,1.47,0,3.02.69,4.05,1.81l.29.31,1.07-2.18-.14-.15c-1.2-1.25-3.02-1.97-4.98-1.97-3.84,0-5.91,2.43-5.91,4.73,0,3.78,2.84,4.66,5.35,5.44,2.07.65,3.86,1.2,3.86,3.21,0,1.67-1.58,2.27-3.06,2.27-1.64,0-3.32-.69-4.19-1.71l-.27-.31-1.25,2.18.15.16c1.2,1.25,3.07,1.97,5.13,1.97,2.91,0,6.05-1.53,6.05-4.89s-2.66-4.09-5-4.8Z"/>
    <path class="cls-5" d="M713.4,595.11c-.66-.49-1.37-1.02-2.11-1.59.63-1.08,1.14-2.37,1.52-3.83l.04-.15-2.04-2.33-.1.6c-.29,1.66-.72,3.07-1.28,4.2-1.61-1.38-2.9-2.72-3.83-4.02.12-.1.25-.19.37-.28,1.58-1.2,3.21-2.45,3.21-4.72,0-2.68-1.96-3.91-3.79-3.91-2.01,0-4.15,1.41-4.15,4.03,0,1.46.41,2.98,1.23,4.5-1.2,1.13-2.51,2.79-2.51,5.58,0,2.49,2.19,4.44,4.99,4.44,1.73,0,3.42-.74,4.79-2.09.42.36.82.69,1.21,1.02l.65.54h4.34l-.63-.51c-.54-.44-1.21-.93-1.91-1.46ZM707.99,594.01c-1.08,1.07-2.16,1.31-2.88,1.31-1.47,0-2.67-.99-2.67-2.22,0-1.36.42-2.46,1.35-3.5,1.27,1.7,2.88,3.22,4.21,4.41ZM703.75,583.1c0-1.19.84-1.81,1.66-1.81.69,0,1.49.44,1.49,1.69,0,1.14-1.07,1.95-2.42,2.97l-.07.06c-.45-1-.66-1.96-.66-2.9Z"/>
    <polygon class="cls-5" points="729.13 582.13 734.8 582.13 734.8 597.08 737.3 597.08 737.3 582.13 742.97 582.13 742.97 579.63 729.13 579.63 729.13 582.13"/>
    <path class="cls-5" d="M758.4,584.81c0-2.5-1.95-5.18-6.22-5.18h-4.63v17.45h2.51v-7.09h1.72l4.75,7.09h3.04l-5.07-7.39c2.38-.7,3.89-2.58,3.89-4.88ZM755.91,584.81c0,1.29-1.17,2.68-3.74,2.68h-2.12v-5.35h2.12c2.57,0,3.74,1.39,3.74,2.67Z"/>
    <path class="cls-5" d="M774.64,590.38c0,3.13-2.1,4.56-4.05,4.56s-4.07-1.43-4.07-4.56v-10.75h-2.51v10.75c0,4.85,3.41,7.06,6.58,7.06s6.56-2.21,6.56-7.06v-10.75h-2.51v10.75Z"/>
    <path class="cls-5" d="M788.61,587.51c-2.26-.68-4.21-1.27-4.21-3.66,0-1.37,1.32-2.41,3.06-2.41,1.47,0,3.02.69,4.05,1.81l.29.31,1.07-2.18-.14-.15c-1.2-1.25-3.02-1.97-4.98-1.97-3.84,0-5.91,2.43-5.91,4.73,0,3.78,2.84,4.66,5.35,5.44,2.07.65,3.86,1.2,3.86,3.21,0,1.67-1.58,2.27-3.06,2.27-1.64,0-3.32-.69-4.19-1.71l-.27-.31-1.25,2.18.15.16c1.2,1.25,3.07,1.97,5.13,1.97,2.91,0,6.05-1.53,6.05-4.89s-2.66-4.09-5-4.8Z"/>
    <polygon class="cls-5" points="797.83 582.13 803.49 582.13 803.49 597.08 806 597.08 806 582.13 811.67 582.13 811.67 579.63 797.83 579.63 797.83 582.13"/>
    <polygon class="cls-5" points="816.24 597.08 827.14 597.08 827.14 594.57 818.75 594.57 818.75 588.88 824.13 588.88 824.13 586.38 818.75 586.38 818.75 582.13 827.14 582.13 827.14 579.63 816.24 579.63 816.24 597.08"/>
    <path class="cls-5" d="M836.88,579.63h-4.32v17.45h4.32c5.57-.05,8.89-3.31,8.89-8.73s-3.08-8.68-8.9-8.73ZM843.14,588.35c0,4.01-2.27,6.22-6.39,6.22h-1.69v-12.44h1.69c4.36,0,6.39,1.98,6.39,6.22Z"/>
    <path class="cls-5" d="M872.54,593.9c-1.17.57-2.41,1.13-3.71,1.13-4.32,0-6.29-3.44-6.29-6.63s1.97-6.63,6.29-6.63c1.43,0,2.78.65,3.67,1.14l.37.2.37-2.71-.17-.1c-1.07-.64-2.74-1.05-4.25-1.05-6.18,0-8.99,4.71-8.99,9.09s3.09,9.09,8.99,9.09c1.47,0,2.94-.37,4.24-1.07l.18-.1-.35-2.55-.36.18Z"/>
    <path class="cls-5" d="M884.94,579.63l-7.28,17.45h2.85l1.83-4.39h7.25l1.62,4.39h2.84l-6.48-17.45h-2.61ZM888.65,590.18h-5.27l2.8-6.68,2.47,6.68Z"/>
    <path class="cls-5" d="M909.33,584.81c0-2.5-1.95-5.18-6.22-5.18h-4.63v17.45h2.51v-7.09h1.72l4.75,7.09h3.04l-5.07-7.39c2.38-.7,3.89-2.58,3.89-4.88ZM906.85,584.81c0,1.29-1.17,2.68-3.74,2.68h-2.12v-5.35h2.12c2.57,0,3.74,1.39,3.74,2.67Z"/>
    <polygon class="cls-5" points="915.31 597.08 926.21 597.08 926.21 594.57 917.82 594.57 917.82 588.88 923.19 588.88 923.19 586.38 917.82 586.38 917.82 582.13 926.21 582.13 926.21 579.63 915.31 579.63 915.31 597.08"/>
    <rect class="cls-5" x="931.39" y="594.45" width="2.63" height="2.63"/>
  </g>
  <g>
    <path class="cls-9" d="M251.95,526.14v21.21h20.96v-21.21h-20.96ZM300.24,526.14l-20.74.15v20.94s21.02.12,21.02.12l-.28-21.21ZM272.78,553.74h-20.76s0,20.59,0,20.59l21.21-.2-.46-20.39ZM279.45,574.3l21.02.08.08-20.67-21.02-.08-.08,20.67ZM217.69,471.31c0-8.32-6.47-15.11-14.65-15.65,8.18-.54,14.65-7.34,14.65-15.65,0,8.32,6.47,15.11,14.65,15.65-8.18.55-14.65,7.34-14.65,15.65ZM262.43,442.87c-5.2.35-9.31,4.66-9.31,9.95,0-5.29-4.11-9.6-9.31-9.95,5.2-.35,9.31-4.66,9.31-9.95,0,5.29,4.11,9.6,9.31,9.95M260.9,391.92c0-10.84-8.43-19.68-19.09-20.39,10.66-.71,19.09-9.56,19.09-20.39,0,10.84,8.43,19.68,19.09,20.39-10.66.71-19.09,9.56-19.09,20.39Z"/>
    <g>
      <path class="cls-1" d="M346.45,599.22l-1.01-68.09-69.23-46.02-70.5,46.31-.04,52.73c-4.95.29-8.86-.36-13.58-1.6-2.28-1.79-4.89-4.67-4.9-7.78l-.14-36.5c-10-.18-18.24.32-28.98-.77,8.94-7.13,17.37-11.9,26.32-17.85l50.47-33.55,40.17-27.11,40.84,27.28.85-11.75,17.16-.14.19,24.1,30.62,20.55c9.03,6.06,17.64,10.91,26.46,18.57l-26.54.72-1.02,40.91c-.21,8.57-9.01,15.4-17.15,19.98Z"/>
      <g>
        <path class="cls-7" d="M279.63,426c-26.93-37.35-73.12-53.96-114.27-41.82-39.26,11.58-68.04,47.27-71.31,85.93-3.05,36.12,17.21,62.84,23.24,70.54,18.55,23.71,41.86,33.29,51.99,36.78-39.69-40.04-51.99-92.63-32.49-128.81,13.52-25.09,38.29-34.78,41.82-36.11,32.38-12.16,71.13-2.27,99.64,25.6,5.15-4.84,9.89-7.56,13.26-9.14,4.78-2.25,7.26-2.43,11.43-5.49,1.79-1.31,5.18-3.85,7.77-8.46,2.73-4.85,3.17-9.51,3.2-12.11-4.17.97-9.57,2.71-15.31,5.94-9.75,5.49-15.76,12.63-18.97,17.14Z"/>
        <path class="cls-4" d="M275.97,380.25c5.22.79,13.42,1.75,23.48,1.64,13.85-.15,27.42-3.72,41.25-3.85,13.32-.12,26.53,3.1,38.72,8.33,25.95,11.14,49.24,30,63.15,54.83,14.58,26.03,15.41,51.14,14.78,63.88-.74,15.23-4.28,27.49-7.24,35.57.38-9.04-.32-24.4-8.46-40.38-10.21-20.05-26.76-30.49-37.02-36.8-9.47-5.82-7.86-3.05-40.91-18.74-9.02-4.28-32.45-15.61-33.14-25.6-.06-.82-.23-3.4,1.37-5.26,1.11-1.28,3.5-2.72,9.83-1.83,13.57,1.9,26.97,11.91,31.77,10.97.31-.06,1.19-.23,1.6-.91.87-1.44-.97-4.03-1.6-4.91-10.13-14.24-43.08-19.31-43.08-19.31-20.83-3.21-27.54-.61-40.11-7.08-6.6-3.4-11.36-7.53-14.4-10.55Z"/>
        <path class="cls-2" d="M432.22,493.27c-1.83,13.97-7.23,33.9-20.52,56.52-13.51,22.99-29.51,36.01-46.51,49.59-17.25,13.78-44.42,32.35-82.36,46.9,5.17.63,14.53,2.48,24.26,8.8,7.93,5.15,12.94,11.2,15.77,15.21,17.17-9.72,76.73-46.65,105.29-91.14,11.13-17.35,15.93-29.54,16.76-38.09,2.19-22.55-7.8-39.24-12.68-47.79Z"/>
        <path class="cls-6" d="M90.81,493.27c2.47,12.71,9.66,39.67,32.59,61.99,6.04,5.88,23.9,21.87,49.89,29.2,8.29,2.34,12.61,2.44,25.28,6.55,14.32,4.64,32.79,12.84,41.27,25.87,3.69,5.67,5.77,13.25-2.62,14.37-8.9,1.19-22.87-11.14-30.17-15.36-2.93-1.69-7.15-3.18-9.23-.52-.88,1.12-1,2.66-.84,4.08.75,6.76,6.76,11.67,12.8,14.8,31.28,16.2,73.27,5.12,100.82,30.1,3.57,3.24,6.12,6.34,7.75,8.52-1.65-.32-3.74-.7-6.18-1.09-21.32-3.39-42.93-1.23-64.38-1.55-22.68-.34-42.07-5.38-62.38-15.26-11.87-5.78-70.41-36.07-89.53-102.8-3.55-12.41-7.66-32.76-5.06-58.9Z"/>
      </g>
    </g>
  </g>
</svg>